<?xml version="1.0" encoding="UTF-8"?>
<svg xmlns="http://www.w3.org/2000/svg" style="stroke-dasharray:none; shape-rendering:auto; font-family:'Arial'; text-rendering:auto; fill-opacity:1; color-interpolation:auto; color-rendering:auto; font-size:12; fill:black; stroke:black; image-rendering:auto; stroke-miterlimit:10; stroke-linecap:square; stroke-linejoin:miter; font-style:normal; stroke-width:1; stroke-dashoffset:0; font-weight:normal; stroke-opacity:1;" contentScriptType="text/ecmascript" preserveAspectRatio="xMidYMid meet" zoomAndPan="magnify" version="1.0" contentStyleType="text/css" xml:xlink="http://www.w3.org/1999/xlink" width="1171" height="591"><rect x="10" y="10" width="1161" height="581" ry="0" rx="0" style="stroke:#000000; fill:#73D216" /><rect x="40" y="203" width="1131" height="193" ry="0" rx="0" style="stroke:#000000; fill:#FFFFFF" /><g componentSequence="4"><text x="-299" y="49" transform="rotate(270)" text-anchor="middle" style="font-weight:bold;font-size:10px;stroke:none; fill:#434343"><tspan dy="14" x="-299">Diretoria</tspan></text></g><rect x="40" y="396" width="1131" height="195" ry="0" rx="0" style="stroke:#000000; fill:#FFFFFF" /><g componentSequence="3"><text x="-493" y="49" transform="rotate(270)" text-anchor="middle" style="font-weight:bold;font-size:10px;stroke:none; fill:#434343"><tspan dy="14" x="-493">Assina PCV</tspan></text></g><rect x="40" y="10" width="1131" height="193" ry="0" rx="0" style="stroke:#000000; fill:#FFFFFF" /><g componentSequence="2"><text x="-106" y="49" transform="rotate(270)" text-anchor="middle" style="font-weight:bold;font-size:10px;stroke:none; fill:#434343"><tspan dy="14" x="-106">Coordenação (CIA)</tspan></text></g><g componentSequence="1"><text x="-300" y="19" transform="rotate(270)" text-anchor="middle" style="font-weight:bold;font-size:10px;stroke:none; fill:#434343"><tspan dy="14" x="-300">VIVERDE - Solicitação de Vendas</tspan></text></g><g sequence="8"><ellipse cx="1077" cy="507" rx="17" ry="17" stroke-width="3" style="fill:url(#linearGradientFF6666FF9696FFB6B6_835723634);" stroke="993333" /></g><g sequence="9"><rect x="603" y="49" width="106" height="85" ry="5" rx="5" style="fill:url(#linearGradientF8FBFEEDF5FCDEEDFAD4E7F8E2E5E9_1058523448);" stroke="191970" /></g><g componentSequence="9"><text x="656" y="64" text-anchor="middle" style="font-weight:bold;font-size:10px;stroke:none; fill:#333399"><tspan dy="14" x="656">Corrigir</tspan><tspan dy="14" x="656">Cadastro</tspan></text></g><rect x="410" y="56" width="105" height="89" ry="5" rx="5" style="stroke:none; fill:#FFFFE0" /><g componentSequence="11"><text x="420" y="79" text-anchor="left" style="font-weight:bold;font-size:10px;stroke:none; fill:#000000"><tspan dy="14" x="420">Preencher</tspan><tspan dy="14" x="420">Ficha de</tspan><tspan dy="14" x="420">Solicitação</tspan></text></g><path style="fill:none; stroke-width:1; stroke:#000000;" d="M430.0 56.0 L410.0 56.0 L410.0 145.0 L430.0 145.0" /><g sequence="12"><rect x="270" y="474" width="106" height="104" ry="5" rx="5" style="fill:url(#linearGradientF8FBFEEDF5FCDEEDFAD4E7F8E2E5E9_992496130);" stroke="191970" /></g><g componentSequence="12"><text x="323" y="489" text-anchor="middle" style="font-weight:bold;font-size:10px;stroke:none; fill:#333399"><tspan dy="14" x="323">Validar</tspan><tspan dy="14" x="323">Dados do</tspan><tspan dy="14" x="323">Cadastro</tspan></text></g><g sequence="13"><ellipse cx="362" cy="83" rx="17" ry="17" stroke-width="1" style="fill:url(#linearGradient66FF6696FF96B6FFB6_2116731651);" stroke="336633" /></g><g sequence="15"><rect x="820" y="480" width="106" height="85" ry="5" rx="5" style="fill:url(#linearGradientF8FBFEEDF5FCDEEDFAD4E7F8E2E5E9_1321313797);" stroke="191970" /></g><g componentSequence="15"><text x="873" y="495" text-anchor="middle" style="font-weight:bold;font-size:10px;stroke:none; fill:#333399"><tspan dy="14" x="873">Concluir</tspan><tspan dy="14" x="873">Venda</tspan></text></g><g sequence="17"><polygon points=" 123 288 153 258 183 288 153 318 123 288" style="fill:url(#linearGradientFAFBFCFFFFCC_1327429868);" stroke="000000" /></g><g componentSequence="17"><text x="153" y="326" text-anchor="middle" style="font-weight:bold;font-size:10px;stroke:none; fill:#333399"><tspan dy="14" x="153">Aprov.</tspan></text></g><g sequence="19"><rect x="100" y="42" width="106" height="104" ry="5" rx="5" style="fill:url(#linearGradientF8FBFEEDF5FCDEEDFAD4E7F8E2E5E9_908051287);" stroke="191970" /></g><g componentSequence="19"><text x="153" y="57" text-anchor="middle" style="font-weight:bold;font-size:10px;stroke:none; fill:#333399"><tspan dy="14" x="153">Relizar</tspan><tspan dy="14" x="153">Contraprop</tspan><tspan dy="14" x="153">osta</tspan></text></g><g sequence="36"><rect x="310" y="267" width="106" height="85" ry="5" rx="5" style="fill:url(#linearGradientF8FBFEEDF5FCDEEDFAD4E7F8E2E5E9_503659596);" stroke="191970" /></g><g componentSequence="36"><text x="363" y="282" text-anchor="middle" style="font-weight:bold;font-size:10px;stroke:none; fill:#333399"><tspan dy="14" x="363">Analisar</tspan><tspan dy="14" x="363">Proposta</tspan></text></g><g sequence="40"><polygon points=" 626 495 656 465 686 495 656 525 626 495" style="fill:url(#linearGradientFAFBFCFFFFCC_1572294663);" stroke="000000" /></g><g componentSequence="40"><text x="656" y="535" text-anchor="middle" style="font-weight:bold;font-size:10px;stroke:none; fill:#333399"><tspan dy="14" x="656">Corrig</tspan><tspan dy="14" x="656">ir?</tspan></text></g><g sequence="48"><ellipse cx="267" cy="83" rx="17" ry="17" stroke-width="3" style="fill:url(#linearGradientFF6666FF9696FFB6B6_1700137669);" stroke="993333" /></g><g sequence="48"><polygon points=" 258 79 263 74 268 79 273 74 278 79 273 84 278 89 273 94 268 89 263 94 258 89 263 84" style="stroke:none; fill:#993333" /></g><g componentSequence="28"><text x="1003" y="513" style="font-size:10px;font-weight:none;stroke:none; fill:#333399" text-anchor="left" /></g><g componentSequence="31"><text x="163" y="202" style="font-size:10px;font-weight:none;stroke:none; fill:#333399" text-anchor="left"><tspan dy="14" x="163">NÃO</tspan></text></g><g componentSequence="32"><text x="162" y="491" style="font-size:10px;font-weight:none;stroke:none; fill:#333399" text-anchor="left"><tspan dy="14" x="162">SIM</tspan></text></g><g componentSequence="37"><text x="256" y="308" style="font-size:10px;font-weight:none;stroke:none; fill:#333399" text-anchor="left" /></g><g componentSequence="38"><text x="372" y="184" style="font-size:10px;font-weight:none;stroke:none; fill:#333399" text-anchor="left" /></g><g componentSequence="39"><text x="273" y="206" style="font-size:10px;font-weight:none;stroke:none; fill:#333399" text-anchor="left" /></g><g componentSequence="41"><text x="511" y="524" style="font-size:10px;font-weight:none;stroke:none; fill:#333399" text-anchor="left" /></g><g componentSequence="42"><text x="666" y="299" style="font-size:10px;font-weight:none;stroke:none; fill:#333399" text-anchor="left" /></g><g componentSequence="43"><text x="503" y="304" style="font-size:10px;font-weight:none;stroke:none; fill:#333399" text-anchor="left" /></g><g componentSequence="47"><text x="238" y="87" style="font-size:10px;font-weight:none;stroke:none; fill:#333399" text-anchor="left"><tspan dy="14" x="238">Cancelar</tspan></text></g><g componentSequence="49"><text x="763" y="523" style="font-size:10px;font-weight:none;stroke:none; fill:#333399" text-anchor="left" /></g><g componentSequence="23"><text x="405" y="89" style="font-size:10px;font-weight:none;stroke:none; fill:#333399" text-anchor="left" /></g><path style="fill:none; stroke:#000000;stroke-width:1" d="M926.0 518.0 L1060.0 508.0" /><polygon style="fill:#000000; stroke:#000000;" points=" 1050 504 1060 508 1050 514 1052 509" /><path style="fill:none; stroke:#000000;stroke-width:1" d="M623.0 134.0 L363.0 473.0" /><polygon style="fill:#000000; stroke:#000000;" points=" 373 468 363 473 365 462 368 467" /><path style="fill:none; stroke:#000000;stroke-width:1" d="M656.0 464.0 L656.0 134.0" /><polygon style="fill:#000000; stroke:#000000;" points=" 651 144 656 134 661 144 656 142" /><path style="fill:none; stroke:#000000;stroke-dasharray:2" d="M409.0 91.0 L379.0 86.0" /><path style="fill:none; stroke:#000000;stroke-width:1" d="M376.0 525.0 L625.0 523.0" /><polygon style="fill:#000000; stroke:#000000;" points=" 615 518 625 523 615 528 617 523" /><path style="fill:none; stroke:#000000;stroke-width:1" d="M152.0 356.0 L152.0 508.0 L269.0 520.0" /><polygon style="fill:#000000; stroke:#000000;" points=" 260 514 269 520 259 524 261 519" /><path style="fill:none; stroke:#000000;stroke-width:1" d="M362.0 100.0 L362.0 266.0" /><polygon style="fill:#000000; stroke:#000000;" points=" 367 256 362 266 357 256 362 258" /><path style="fill:none; stroke:#000000;stroke-width:1" d="M686.0 523.0 L819.0 522.0" /><polygon style="fill:#000000; stroke:#000000;" points=" 809 517 819 522 809 527 811 522" /><path style="fill:none; stroke:#000000;stroke-width:1" d="M153.0 257.0 L153.0 146.0" /><polygon style="fill:#000000; stroke:#000000;" points=" 148 156 153 146 158 156 153 154" /><path style="fill:none; stroke:#000000;stroke-width:1" d="M309.0 308.0 L183.0 307.0" /><polygon style="fill:#000000; stroke:#000000;" points=" 193 312 183 307 193 302 191 307" /><path style="fill:none; stroke:#000000;stroke-width:1" d="M204.0 146.0 L321.0 266.0" /><polygon style="fill:#000000; stroke:#000000;" points=" 318 255 321 266 310 262 315 260" /><path style="fill:none; stroke:#000000;stroke-width:1" d="M206.0 89.0 L250.0 84.0" /><polygon style="fill:#000000; stroke:#000000;" points=" 239 80 250 84 241 90 242 85" /><defs><linearGradient xmlns:xlink="http://www.w3.org/1999/xlink" xlink:href="#linearGradientFF6666FF9696FFB6B6" id="linearGradientFF6666FF9696FFB6B6_835723634" x1="0" y1="490.0" x2="0" y2="525.0" gradientUnits="userSpaceOnUse" xlink:type="simple" xlink:actuate="onLoad" xlink:show="other" /><linearGradient id="linearGradientFF6666FF9696FFB6B6"><stop style="stop-color:#FF6666;stop-opacity:1;" offset="0.0" id="stopFF6666" /><stop style="stop-color:#FF9696;stop-opacity:1;" offset="0.5" id="stopFF9696" /><stop style="stop-color:#FFB6B6;stop-opacity:1;" offset="1.0" id="stopFFB6B6" /></linearGradient><linearGradient xmlns:xlink="http://www.w3.org/1999/xlink" xlink:href="#linearGradientF8FBFEEDF5FCDEEDFAD4E7F8E2E5E9" id="linearGradientF8FBFEEDF5FCDEEDFAD4E7F8E2E5E9_1058523448" x1="0" y1="49.0" x2="0" y2="155.0" gradientUnits="userSpaceOnUse" xlink:type="simple" xlink:actuate="onLoad" xlink:show="other" /><linearGradient id="linearGradientF8FBFEEDF5FCDEEDFAD4E7F8E2E5E9"><stop style="stop-color:#F8FBFE;stop-opacity:1;" offset="0.0" id="stopF8FBFE" /><stop style="stop-color:#EDF5FC;stop-opacity:1;" offset="0.25" id="stopEDF5FC" /><stop style="stop-color:#DEEDFA;stop-opacity:1;" offset="0.5" id="stopDEEDFA" /><stop style="stop-color:#D4E7F8;stop-opacity:1;" offset="0.75" id="stopD4E7F8" /><stop style="stop-color:#E2E5E9;stop-opacity:1;" offset="1.0" id="stopE2E5E9" /></linearGradient><linearGradient xmlns:xlink="http://www.w3.org/1999/xlink" xlink:href="#linearGradientF8FBFEEDF5FCDEEDFAD4E7F8E2E5E9" id="linearGradientF8FBFEEDF5FCDEEDFAD4E7F8E2E5E9_992496130" x1="0" y1="474.0" x2="0" y2="580.0" gradientUnits="userSpaceOnUse" xlink:type="simple" xlink:actuate="onLoad" xlink:show="other" /><linearGradient xmlns:xlink="http://www.w3.org/1999/xlink" xlink:href="#linearGradient66FF6696FF96B6FFB6" id="linearGradient66FF6696FF96B6FFB6_2116731651" x1="0" y1="66.0" x2="0" y2="101.0" gradientUnits="userSpaceOnUse" xlink:type="simple" xlink:actuate="onLoad" xlink:show="other" /><linearGradient id="linearGradient66FF6696FF96B6FFB6"><stop style="stop-color:#66FF66;stop-opacity:1;" offset="0.0" id="stop66FF66" /><stop style="stop-color:#96FF96;stop-opacity:1;" offset="0.5" id="stop96FF96" /><stop style="stop-color:#B6FFB6;stop-opacity:1;" offset="1.0" id="stopB6FFB6" /></linearGradient><linearGradient xmlns:xlink="http://www.w3.org/1999/xlink" xlink:href="#linearGradientF8FBFEEDF5FCDEEDFAD4E7F8E2E5E9" id="linearGradientF8FBFEEDF5FCDEEDFAD4E7F8E2E5E9_1321313797" x1="0" y1="480.0" x2="0" y2="586.0" gradientUnits="userSpaceOnUse" xlink:type="simple" xlink:actuate="onLoad" xlink:show="other" /><linearGradient xmlns:xlink="http://www.w3.org/1999/xlink" xlink:href="#linearGradientFAFBFCFFFFCC" id="linearGradientFAFBFCFFFFCC_1327429868" x1="0" y1="258.0" x2="0" y2="318.0" gradientUnits="userSpaceOnUse" xlink:type="simple" xlink:actuate="onLoad" xlink:show="other" /><linearGradient id="linearGradientFAFBFCFFFFCC"><stop style="stop-color:#FAFBFC;stop-opacity:1;" offset="0.0" id="stopFAFBFC" /><stop style="stop-color:#FFFFCC;stop-opacity:1;" offset="1.0" id="stopFFFFCC" /></linearGradient><linearGradient xmlns:xlink="http://www.w3.org/1999/xlink" xlink:href="#linearGradientF8FBFEEDF5FCDEEDFAD4E7F8E2E5E9" id="linearGradientF8FBFEEDF5FCDEEDFAD4E7F8E2E5E9_908051287" x1="0" y1="42.0" x2="0" y2="148.0" gradientUnits="userSpaceOnUse" xlink:type="simple" xlink:actuate="onLoad" xlink:show="other" /><linearGradient xmlns:xlink="http://www.w3.org/1999/xlink" xlink:href="#linearGradientF8FBFEEDF5FCDEEDFAD4E7F8E2E5E9" id="linearGradientF8FBFEEDF5FCDEEDFAD4E7F8E2E5E9_503659596" x1="0" y1="267.0" x2="0" y2="373.0" gradientUnits="userSpaceOnUse" xlink:type="simple" xlink:actuate="onLoad" xlink:show="other" /><linearGradient xmlns:xlink="http://www.w3.org/1999/xlink" xlink:href="#linearGradientFAFBFCFFFFCC" id="linearGradientFAFBFCFFFFCC_1572294663" x1="0" y1="465.0" x2="0" y2="525.0" gradientUnits="userSpaceOnUse" xlink:type="simple" xlink:actuate="onLoad" xlink:show="other" /><linearGradient xmlns:xlink="http://www.w3.org/1999/xlink" xlink:href="#linearGradientFF6666FF9696FFB6B6" id="linearGradientFF6666FF9696FFB6B6_1700137669" x1="0" y1="66.0" x2="0" y2="101.0" gradientUnits="userSpaceOnUse" xlink:type="simple" xlink:actuate="onLoad" xlink:show="other" /></defs></svg>
