<?xml version="1.0" encoding="UTF-8"?>
<svg xmlns="http://www.w3.org/2000/svg" style="stroke-dasharray:none; shape-rendering:auto; font-family:'Arial'; text-rendering:auto; fill-opacity:1; color-interpolation:auto; color-rendering:auto; font-size:12; fill:black; stroke:black; image-rendering:auto; stroke-miterlimit:10; stroke-linecap:square; stroke-linejoin:miter; font-style:normal; stroke-width:1; stroke-dashoffset:0; font-weight:normal; stroke-opacity:1;" contentScriptType="text/ecmascript" preserveAspectRatio="xMidYMid meet" zoomAndPan="magnify" version="1.0" contentStyleType="text/css" xml:xlink="http://www.w3.org/1999/xlink" width="3064" height="1121"><rect x="0" y="1" width="3064" height="1120" ry="0" rx="0" style="stroke:#000000; fill:#FFFFFF" /><g componentSequence="1"><text x="-561" y="9" transform="rotate(270)" text-anchor="middle" style="font-weight:bold;font-size:10px;stroke:none; fill:#434343"><tspan dy="14" x="-561">Distribuição de Dividendos</tspan></text></g><g sequence="4"><ellipse cx="87" cy="67" rx="17" ry="17" stroke-width="1" style="fill:url(#linearGradient66FF6696FF96B6FFB6_1921038649);" stroke="336633" /></g><g sequence="5"><rect x="150" y="160" width="106" height="104" ry="5" rx="5" style="fill:url(#linearGradientF8FBFEEDF5FCDEEDFAD4E7F8E2E5E9_2085050649);" stroke="191970" /></g><g componentSequence="5"><text x="203" y="175" text-anchor="middle" style="font-weight:bold;font-size:10px;stroke:none; fill:#333399"><tspan dy="14" x="203">Aprovação</tspan><tspan dy="14" x="203">do</tspan><tspan dy="14" x="203">Conselho</tspan></text></g><g sequence="7"><polygon points=" 320 214 350 184 380 214 350 244 320 214" style="fill:url(#linearGradientFAFBFCFFFFCC_2021184073);" stroke="000000" /></g><g componentSequence="7"><text x="350" y="254" text-anchor="middle" style="font-weight:bold;font-size:10px;stroke:none; fill:#333399"><tspan dy="14" x="350">Aprov</tspan><tspan dy="14" x="350">ação</tspan><tspan dy="14" x="350">C...</tspan></text></g><g sequence="9"><rect x="390" y="340" width="106" height="85" ry="5" rx="5" style="fill:url(#linearGradientF8FBFEEDF5FCDEEDFAD4E7F8E2E5E9_1031426850);" stroke="191970" /></g><g componentSequence="9"><text x="443" y="355" text-anchor="middle" style="font-weight:bold;font-size:10px;stroke:none; fill:#333399"><tspan dy="14" x="443">Avaliação</tspan><tspan dy="14" x="443">Técnica</tspan></text></g><g sequence="11"><polygon points=" 600 360 630 330 660 360 630 390 600 360" style="fill:url(#linearGradientFAFBFCFFFFCC_1254386885);" stroke="000000" /></g><g componentSequence="11"><text x="630" y="400" text-anchor="middle" style="font-weight:bold;font-size:10px;stroke:none; fill:#333399"><tspan dy="14" x="630">Anteci</tspan><tspan dy="14" x="630">pação</tspan><tspan dy="14" x="630">?</tspan></text></g><g sequence="13"><rect x="670" y="60" width="106" height="104" ry="5" rx="5" style="fill:url(#linearGradientF8FBFEEDF5FCDEEDFAD4E7F8E2E5E9_202205973);" stroke="191970" /></g><g componentSequence="13"><text x="723" y="75" text-anchor="middle" style="font-weight:bold;font-size:10px;stroke:none; fill:#333399"><tspan dy="14" x="723">Planejame</tspan><tspan dy="14" x="723">nto Solicita</tspan><tspan dy="14" x="723">Ata Fluig</tspan></text></g><g sequence="17"><rect x="910" y="460" width="106" height="142" ry="5" rx="5" style="fill:url(#linearGradientF8FBFEEDF5FCDEEDFAD4E7F8E2E5E9_844696135);" stroke="191970" /></g><g componentSequence="17"><text x="963" y="475" text-anchor="middle" style="font-weight:bold;font-size:10px;stroke:none; fill:#333399"><tspan dy="14" x="963">Financeiro</tspan><tspan dy="14" x="963">programa</tspan><tspan dy="14" x="963">pagamento</tspan><tspan dy="14" x="963">solicitado</tspan></text></g><g sequence="19"><rect x="910" y="810" width="106" height="123" ry="5" rx="5" style="fill:url(#linearGradientF8FBFEEDF5FCDEEDFAD4E7F8E2E5E9_1565895789);" stroke="191970" /></g><g componentSequence="19"><text x="963" y="825" text-anchor="middle" style="font-weight:bold;font-size:10px;stroke:none; fill:#333399"><tspan dy="14" x="963">Gera Ata</tspan><tspan dy="14" x="963">para</tspan><tspan dy="14" x="963">assinatura</tspan><tspan dy="14" x="963">dos sócios</tspan></text></g><g sequence="21"><polygon points=" 1120 840 1150 810 1180 840 1150 870 1120 840" style="fill:url(#linearGradientFAFBFCFFFFCC_874402118);" stroke="000000" /></g><g componentSequence="21"><text x="1150" y="880" text-anchor="middle" style="font-weight:bold;font-size:10px;stroke:none; fill:#333399"><tspan dy="14" x="1150">Assin</tspan><tspan dy="14" x="1150">ada?</tspan></text></g><g sequence="23"><rect x="660" y="840" width="106" height="85" ry="5" rx="5" style="fill:url(#linearGradientF8FBFEEDF5FCDEEDFAD4E7F8E2E5E9_1403830547);" stroke="191970" /></g><g componentSequence="23"><text x="713" y="855" text-anchor="middle" style="font-weight:bold;font-size:10px;stroke:none; fill:#333399"><tspan dy="14" x="713">Integra RM-</tspan><tspan dy="14" x="713">Totvs</tspan></text></g><g sequence="26"><polygon points=" 1260 840 1290 810 1320 840 1290 870 1260 840" style="fill:url(#linearGradientFAFBFCFFFFCC_694018579);" stroke="000000" /></g><g componentSequence="26"><text x="1290" y="880" text-anchor="middle" style="font-weight:bold;font-size:10px;stroke:none; fill:#333399"><tspan dy="14" x="1290">Anteci</tspan><tspan dy="14" x="1290">pação</tspan><tspan dy="14" x="1290">Ant...</tspan></text></g><g sequence="28"><polygon points=" 1120 520 1150 490 1180 520 1150 550 1120 520" style="fill:url(#linearGradientFAFBFCFFFFCC_1494947217);" stroke="000000" /></g><g componentSequence="28"><text x="1150" y="560" text-anchor="middle" style="font-weight:bold;font-size:10px;stroke:none; fill:#333399"><tspan dy="14" x="1150">Paga</tspan><tspan dy="14" x="1150">mento</tspan><tspan dy="14" x="1150">Re...</tspan></text></g><g sequence="32"><rect x="1250" y="490" width="106" height="123" ry="5" rx="5" style="fill:url(#linearGradientF8FBFEEDF5FCDEEDFAD4E7F8E2E5E9_524938133);" stroke="191970" /></g><g componentSequence="32"><text x="1303" y="505" text-anchor="middle" style="font-weight:bold;font-size:10px;stroke:none; fill:#333399"><tspan dy="14" x="1303">Conselho</tspan><tspan dy="14" x="1303">concilia</tspan><tspan dy="14" x="1303">pagamento</tspan></text></g><g sequence="34"><rect x="1450" y="469" width="106" height="161" ry="5" rx="5" style="fill:url(#linearGradientF8FBFEEDF5FCDEEDFAD4E7F8E2E5E9_710411574);" stroke="191970" /></g><g componentSequence="34"><text x="1503" y="484" text-anchor="middle" style="font-weight:bold;font-size:10px;stroke:none; fill:#333399"><tspan dy="14" x="1503">Financeiro</tspan><tspan dy="14" x="1503">anexa</tspan><tspan dy="14" x="1503">comprovant</tspan><tspan dy="14" x="1503">e de</tspan><tspan dy="14" x="1503">pagamento</tspan><tspan dy="14" x="1503">no flug</tspan></text></g><g sequence="36"><polygon points=" 1620 520 1650 490 1680 520 1650 550 1620 520" style="fill:url(#linearGradientFAFBFCFFFFCC_1825781524);" stroke="000000" /></g><g componentSequence="36"><text x="1650" y="560" text-anchor="middle" style="font-weight:bold;font-size:10px;stroke:none; fill:#333399"><tspan dy="14" x="1650">Anteci</tspan><tspan dy="14" x="1650">pação</tspan><tspan dy="14" x="1650">?</tspan></text></g><g sequence="38"><ellipse cx="1767" cy="547" rx="17" ry="17" stroke-width="3" style="fill:url(#linearGradientFF6666FF9696FFB6B6_1843724418);" stroke="993333" /></g><g sequence="40"><rect x="1600" y="820" width="106" height="85" ry="5" rx="5" style="fill:url(#linearGradientF8FBFEEDF5FCDEEDFAD4E7F8E2E5E9_1025530856);" stroke="191970" /></g><g componentSequence="40"><text x="1653" y="835" text-anchor="middle" style="font-weight:bold;font-size:10px;stroke:none; fill:#333399"><tspan dy="14" x="1653">Integra RM-</tspan><tspan dy="14" x="1653">Totvs</tspan></text></g><g sequence="42"><rect x="1710" y="820" width="106" height="104" ry="5" rx="5" style="fill:url(#linearGradientF8FBFEEDF5FCDEEDFAD4E7F8E2E5E9_1471908047);" stroke="191970" /></g><g componentSequence="42"><text x="1763" y="835" text-anchor="middle" style="font-weight:bold;font-size:10px;stroke:none; fill:#333399"><tspan dy="14" x="1763">Integra na</tspan><tspan dy="14" x="1763">contabilida</tspan><tspan dy="14" x="1763">de</tspan></text></g><g sequence="45"><rect x="1460" y="90" width="106" height="199" ry="5" rx="5" style="fill:url(#linearGradientF8FBFEEDF5FCDEEDFAD4E7F8E2E5E9_581271227);" stroke="191970" /></g><g componentSequence="45"><text x="1513" y="105" text-anchor="middle" style="font-weight:bold;font-size:10px;stroke:none; fill:#333399"><tspan dy="14" x="1513">Planejame</tspan><tspan dy="14" x="1513">nto</tspan><tspan dy="14" x="1513">financeiro</tspan><tspan dy="14" x="1513">solicita</tspan><tspan dy="14" x="1513">provisão</tspan><tspan dy="14" x="1513">dos</tspan><tspan dy="14" x="1513">pagamento</tspan><tspan dy="14" x="1513">s</tspan></text></g><g sequence="48"><rect x="1950" y="510" width="106" height="142" ry="5" rx="5" style="fill:url(#linearGradientF8FBFEEDF5FCDEEDFAD4E7F8E2E5E9_1728154493);" stroke="191970" /></g><g componentSequence="48"><text x="2003" y="525" text-anchor="middle" style="font-weight:bold;font-size:10px;stroke:none; fill:#333399"><tspan dy="14" x="2003">Contabilida</tspan><tspan dy="14" x="2003">de concilia</tspan><tspan dy="14" x="2003">movimenta</tspan><tspan dy="14" x="2003">ção</tspan></text></g><g sequence="50"><polygon points=" 2110 560 2140 530 2170 560 2140 590 2110 560" style="fill:url(#linearGradientFAFBFCFFFFCC_1480680302);" stroke="000000" /></g><g componentSequence="50"><text x="2140" y="600" text-anchor="middle" style="font-weight:bold;font-size:10px;stroke:none; fill:#333399"><tspan dy="14" x="2140">Saldo</tspan><tspan dy="14" x="2140">de</tspan><tspan dy="14" x="2140">ant...</tspan></text></g><g sequence="51"><ellipse cx="2257" cy="567" rx="17" ry="17" stroke-width="3" style="fill:url(#linearGradientFF6666FF9696FFB6B6_1396143449);" stroke="993333" /></g><g sequence="54"><rect x="2270" y="820" width="106" height="142" ry="5" rx="5" style="fill:url(#linearGradientF8FBFEEDF5FCDEEDFAD4E7F8E2E5E9_1517193506);" stroke="191970" /></g><g componentSequence="54"><text x="2323" y="835" text-anchor="middle" style="font-weight:bold;font-size:10px;stroke:none; fill:#333399"><tspan dy="14" x="2323">Solicita</tspan><tspan dy="14" x="2323">distribuição</tspan><tspan dy="14" x="2323">de</tspan><tspan dy="14" x="2323">antecipaçã</tspan><tspan dy="14" x="2323">o</tspan></text></g><g sequence="56"><rect x="2430" y="70" width="106" height="180" ry="5" rx="5" style="fill:url(#linearGradientF8FBFEEDF5FCDEEDFAD4E7F8E2E5E9_828357489);" stroke="191970" /></g><g componentSequence="56"><text x="2483" y="85" text-anchor="middle" style="font-weight:bold;font-size:10px;stroke:none; fill:#333399"><tspan dy="14" x="2483">Planejame</tspan><tspan dy="14" x="2483">nto avalia e</tspan><tspan dy="14" x="2483">encaminha</tspan><tspan dy="14" x="2483">para</tspan><tspan dy="14" x="2483">distribuição</tspan></text></g><g componentSequence="6"><text x="95" y="156" style="font-size:10px;font-weight:none;stroke:none; fill:#333399" text-anchor="left" /></g><g componentSequence="8"><text x="298" y="235" style="font-size:10px;font-weight:none;stroke:none; fill:#333399" text-anchor="left" /></g><g componentSequence="10"><text x="406" y="317" style="font-size:10px;font-weight:none;stroke:none; fill:#333399" text-anchor="left"><tspan dy="14" x="406">Aprovado</tspan></text></g><g componentSequence="12"><text x="558" y="391" style="font-size:10px;font-weight:none;stroke:none; fill:#333399" text-anchor="left" /></g><g componentSequence="14"><text x="638" y="171" style="font-size:10px;font-weight:none;stroke:none; fill:#333399" text-anchor="left"><tspan dy="14" x="638">Não</tspan></text></g><g componentSequence="20"><text x="831" y="478" style="font-size:10px;font-weight:none;stroke:none; fill:#333399" text-anchor="left" /></g><g componentSequence="22"><text x="1078" y="869" style="font-size:10px;font-weight:none;stroke:none; fill:#333399" text-anchor="left" /></g><g componentSequence="24"><text x="638" y="691" style="font-size:10px;font-weight:none;stroke:none; fill:#333399" text-anchor="left"><tspan dy="14" x="638">Sim</tspan></text></g><g componentSequence="25"><text x="834" y="685" style="font-size:10px;font-weight:none;stroke:none; fill:#333399" text-anchor="left" /></g><g componentSequence="27"><text x="1230" y="873" style="font-size:10px;font-weight:none;stroke:none; fill:#333399" text-anchor="left"><tspan dy="14" x="1230">Sim</tspan></text></g><g componentSequence="29"><text x="1078" y="546" style="font-size:10px;font-weight:none;stroke:none; fill:#333399" text-anchor="left" /></g><g componentSequence="30"><text x="1061" y="760" style="font-size:10px;font-weight:none;stroke:none; fill:#333399" text-anchor="left"><tspan dy="14" x="1061">Não</tspan></text></g><g componentSequence="33"><text x="1225" y="555" style="font-size:10px;font-weight:none;stroke:none; fill:#333399" text-anchor="left" /></g><g componentSequence="35"><text x="1413" y="550" style="font-size:10px;font-weight:none;stroke:none; fill:#333399" text-anchor="left" /></g><g componentSequence="37"><text x="1598" y="554" style="font-size:10px;font-weight:none;stroke:none; fill:#333399" text-anchor="left" /></g><g componentSequence="39"><text x="1725" y="552" style="font-size:10px;font-weight:none;stroke:none; fill:#333399" text-anchor="left"><tspan dy="14" x="1725">Não</tspan></text></g><g componentSequence="41"><text x="1232" y="804" style="font-size:10px;font-weight:none;stroke:none; fill:#333399" text-anchor="left"><tspan dy="14" x="1232">Sim</tspan></text></g><g componentSequence="43"><text x="1719" y="723" style="font-size:10px;font-weight:none;stroke:none; fill:#333399" text-anchor="left"><tspan dy="14" x="1719">Sim</tspan></text></g><g componentSequence="44"><text x="1547" y="963" style="font-size:10px;font-weight:none;stroke:none; fill:#333399" text-anchor="left"><tspan dy="14" x="1547">Sim</tspan></text></g><g componentSequence="46"><text x="1299" y="362" style="font-size:10px;font-weight:none;stroke:none; fill:#333399" text-anchor="left"><tspan dy="14" x="1299">Não</tspan></text></g><g componentSequence="47"><text x="1522" y="619" style="font-size:10px;font-weight:none;stroke:none; fill:#333399" text-anchor="left" /></g><g componentSequence="49"><text x="1915" y="751" style="font-size:10px;font-weight:none;stroke:none; fill:#333399" text-anchor="left" /></g><g componentSequence="52"><text x="2215" y="581" style="font-size:10px;font-weight:none;stroke:none; fill:#333399" text-anchor="left"><tspan dy="14" x="2215">Não</tspan></text></g><g componentSequence="53"><text x="2093" y="591" style="font-size:10px;font-weight:none;stroke:none; fill:#333399" text-anchor="left" /></g><g componentSequence="55"><text x="2149" y="844" style="font-size:10px;font-weight:none;stroke:none; fill:#333399" text-anchor="left"><tspan dy="14" x="2149">Sim</tspan></text></g><g componentSequence="57"><text x="2505" y="633" style="font-size:10px;font-weight:none;stroke:none; fill:#333399" text-anchor="left" /></g><g componentSequence="58"><text x="1612" y="34" style="font-size:10px;font-weight:none;stroke:none; fill:#333399" text-anchor="left" /></g><g componentSequence="59"><text x="296" y="67" style="font-size:10px;font-weight:none;stroke:none; fill:#333399" text-anchor="left"><tspan dy="14" x="296">Rejeitado</tspan></text></g><path style="fill:none; stroke:#000000;stroke-width:1" d="M86.0 84.0 L85.0 157.0 L148.0 186.0" /><polygon style="fill:#000000; stroke:#000000;" points=" 141 177 148 186 137 186 141 183" /><path style="fill:none; stroke:#000000;stroke-width:1" d="M350.0 182.0 L350.0 67.0 L106.0 66.0" /><polygon style="fill:#000000; stroke:#000000;" points=" 116 71 106 66 116 61 114 66" /><path style="fill:none; stroke:#000000;stroke-width:1" d="M256.0 226.0 L318.0 242.0" /><polygon style="fill:#000000; stroke:#000000;" points=" 310 235 318 242 307 244 310 240" /><path style="fill:none; stroke:#000000;stroke-width:1" d="M380.0 294.0 L410.0 338.0" /><polygon style="fill:#000000; stroke:#000000;" points=" 408 327 410 338 400 333 405 331" /><path style="fill:none; stroke:#000000;stroke-width:1" d="M496.0 386.0 L598.0 394.0" /><polygon style="fill:#000000; stroke:#000000;" points=" 588 388 598 394 588 398 590 393" /><path style="fill:none; stroke:#000000;stroke-width:1" d="M628.0 328.0 L628.0 60.0 L668.0 82.0" /><polygon style="fill:#000000; stroke:#000000;" points=" 662 73 668 82 657 82 661 78" /><path style="fill:none; stroke:#000000;stroke-width:1" d="M628.0 466.0 L628.0 885.0 L658.0 884.0" /><polygon style="fill:#000000; stroke:#000000;" points=" 648 879 658 884 648 889 650 884" /><path style="fill:none; stroke:#000000;stroke-width:1" d="M776.0 80.0 L820.0 57.0 L821.0 861.0 L908.0 866.0" /><polygon style="fill:#000000; stroke:#000000;" points=" 898 860 908 866 898 870 900 866" /><path style="fill:none; stroke:#000000;stroke-width:1" d="M2480.0 68.0 L2480.0 34.0 L1604.0 34.0 L714.0 34.0 L716.0 58.0" /><polygon style="fill:#000000; stroke:#000000;" points=" 720 48 716 58 710 48 715 50" /><path style="fill:none; stroke:#000000;stroke-width:1" d="M1016.0 538.0 L1118.0 552.0" /><polygon style="fill:#000000; stroke:#000000;" points=" 1109 546 1118 552 1107 556 1110 551" /><path style="fill:none; stroke:#000000;stroke-width:1" d="M766.0 876.0 L824.0 869.0 L824.0 812.0 L824.0 706.0 L824.0 528.0 L908.0 530.0" /><polygon style="fill:#000000; stroke:#000000;" points=" 898 525 908 530 898 535 900 530" /><path style="fill:none; stroke:#000000;stroke-width:1" d="M1654.0 818.0 L1654.0 785.0 L1141.0 808.0 L1141.0 758.0 L1055.0 758.0 L962.0 758.0 L962.0 602.0" /><polygon style="fill:#000000; stroke:#000000;" points=" 957 612 962 602 967 612 962 610" /><path style="fill:none; stroke:#000000;stroke-width:1" d="M1016.0 870.0 L1118.0 868.0" /><polygon style="fill:#000000; stroke:#000000;" points=" 1108 863 1118 868 1108 873 1110 868" /><path style="fill:none; stroke:#000000;stroke-width:1" d="M1148.0 808.0 L1149.0 760.0 L1046.0 760.0 L953.0 761.0 L956.0 808.0" /><polygon style="fill:#000000; stroke:#000000;" points=" 960 798 956 808 950 798 955 800" /><path style="fill:none; stroke:#000000;stroke-width:1" d="M1180.0 870.0 L1258.0 874.0" /><polygon style="fill:#000000; stroke:#000000;" points=" 1248 868 1258 874 1248 878 1250 874" /><path style="fill:none; stroke:#000000;stroke-width:1" d="M1286.0 946.0 L1287.0 963.0 L1508.0 963.0 L1765.0 963.0 L1764.0 924.0" /><polygon style="fill:#000000; stroke:#000000;" points=" 1759 934 1764 924 1769 934 1764 932" /><path style="fill:none; stroke:#000000;stroke-width:1" d="M1288.0 808.0 L1289.0 99.0 L1458.0 168.0" /><polygon style="fill:#000000; stroke:#000000;" points=" 1451 160 1458 168 1447 169 1451 165" /><path style="fill:none; stroke:#000000;stroke-width:1" d="M1180.0 556.0 L1248.0 554.0" /><polygon style="fill:#000000; stroke:#000000;" points=" 1238 549 1248 554 1238 559 1240 554" /><path style="fill:none; stroke:#000000;stroke-width:1" d="M1356.0 550.0 L1448.0 550.0" /><polygon style="fill:#000000; stroke:#000000;" points=" 1438 545 1448 550 1438 555 1440 550" /><path style="fill:none; stroke:#000000;stroke-width:1" d="M1556.0 552.0 L1618.0 556.0" /><polygon style="fill:#000000; stroke:#000000;" points=" 1608 550 1618 556 1608 560 1610 555" /><path style="fill:none; stroke:#000000;stroke-width:1" d="M1680.0 554.0 L1748.0 546.0" /><polygon style="fill:#000000; stroke:#000000;" points=" 1737 542 1748 546 1739 552 1740 547" /><path style="fill:none; stroke:#000000;stroke-width:1" d="M1674.0 626.0 L1736.0 798.0 L1744.0 818.0" /><polygon style="fill:#000000; stroke:#000000;" points=" 1745 807 1744 818 1736 811 1741 811" /><path style="fill:none; stroke:#000000;stroke-width:1" d="M1512.0 290.0 L1512.0 862.0 L1598.0 862.0" /><polygon style="fill:#000000; stroke:#000000;" points=" 1588 857 1598 862 1588 867 1590 862" /><path style="fill:none; stroke:#000000;stroke-width:1" d="M1816.0 872.0 L1905.0 873.0 L1905.0 584.0 L1948.0 582.0" /><polygon style="fill:#000000; stroke:#000000;" points=" 1938 577 1948 582 1938 587 1940 582" /><path style="fill:none; stroke:#000000;stroke-width:1" d="M2056.0 588.0 L2108.0 594.0" /><polygon style="fill:#000000; stroke:#000000;" points=" 2099 588 2108 594 2097 598 2100 593" /><path style="fill:none; stroke:#000000;stroke-width:1" d="M2170.0 588.0 L2238.0 570.0" /><polygon style="fill:#000000; stroke:#000000;" points=" 2227 568 2238 570 2230 577 2230 572" /><path style="fill:none; stroke:#000000;stroke-width:1" d="M2138.0 666.0 L2139.0 892.0 L2268.0 890.0" /><polygon style="fill:#000000; stroke:#000000;" points=" 2258 885 2268 890 2258 895 2260 890" /><path style="fill:none; stroke:#000000;stroke-width:1" d="M2376.0 890.0 L2502.0 891.0 L2484.0 250.0" /><polygon style="fill:#000000; stroke:#000000;" points=" 2479 260 2484 250 2489 260 2484 258" /><defs><linearGradient xmlns:xlink="http://www.w3.org/1999/xlink" xlink:href="#linearGradient66FF6696FF96B6FFB6" id="linearGradient66FF6696FF96B6FFB6_1921038649" x1="0" y1="50.0" x2="0" y2="85.0" gradientUnits="userSpaceOnUse" xlink:type="simple" xlink:actuate="onLoad" xlink:show="other" /><linearGradient id="linearGradient66FF6696FF96B6FFB6"><stop style="stop-color:#66FF66;stop-opacity:1;" offset="0.0" id="stop66FF66" /><stop style="stop-color:#96FF96;stop-opacity:1;" offset="0.5" id="stop96FF96" /><stop style="stop-color:#B6FFB6;stop-opacity:1;" offset="1.0" id="stopB6FFB6" /></linearGradient><linearGradient xmlns:xlink="http://www.w3.org/1999/xlink" xlink:href="#linearGradientF8FBFEEDF5FCDEEDFAD4E7F8E2E5E9" id="linearGradientF8FBFEEDF5FCDEEDFAD4E7F8E2E5E9_2085050649" x1="0" y1="160.0" x2="0" y2="266.0" gradientUnits="userSpaceOnUse" xlink:type="simple" xlink:actuate="onLoad" xlink:show="other" /><linearGradient id="linearGradientF8FBFEEDF5FCDEEDFAD4E7F8E2E5E9"><stop style="stop-color:#F8FBFE;stop-opacity:1;" offset="0.0" id="stopF8FBFE" /><stop style="stop-color:#EDF5FC;stop-opacity:1;" offset="0.25" id="stopEDF5FC" /><stop style="stop-color:#DEEDFA;stop-opacity:1;" offset="0.5" id="stopDEEDFA" /><stop style="stop-color:#D4E7F8;stop-opacity:1;" offset="0.75" id="stopD4E7F8" /><stop style="stop-color:#E2E5E9;stop-opacity:1;" offset="1.0" id="stopE2E5E9" /></linearGradient><linearGradient xmlns:xlink="http://www.w3.org/1999/xlink" xlink:href="#linearGradientFAFBFCFFFFCC" id="linearGradientFAFBFCFFFFCC_2021184073" x1="0" y1="184.0" x2="0" y2="244.0" gradientUnits="userSpaceOnUse" xlink:type="simple" xlink:actuate="onLoad" xlink:show="other" /><linearGradient id="linearGradientFAFBFCFFFFCC"><stop style="stop-color:#FAFBFC;stop-opacity:1;" offset="0.0" id="stopFAFBFC" /><stop style="stop-color:#FFFFCC;stop-opacity:1;" offset="1.0" id="stopFFFFCC" /></linearGradient><linearGradient xmlns:xlink="http://www.w3.org/1999/xlink" xlink:href="#linearGradientF8FBFEEDF5FCDEEDFAD4E7F8E2E5E9" id="linearGradientF8FBFEEDF5FCDEEDFAD4E7F8E2E5E9_1031426850" x1="0" y1="340.0" x2="0" y2="446.0" gradientUnits="userSpaceOnUse" xlink:type="simple" xlink:actuate="onLoad" xlink:show="other" /><linearGradient xmlns:xlink="http://www.w3.org/1999/xlink" xlink:href="#linearGradientFAFBFCFFFFCC" id="linearGradientFAFBFCFFFFCC_1254386885" x1="0" y1="330.0" x2="0" y2="390.0" gradientUnits="userSpaceOnUse" xlink:type="simple" xlink:actuate="onLoad" xlink:show="other" /><linearGradient xmlns:xlink="http://www.w3.org/1999/xlink" xlink:href="#linearGradientF8FBFEEDF5FCDEEDFAD4E7F8E2E5E9" id="linearGradientF8FBFEEDF5FCDEEDFAD4E7F8E2E5E9_202205973" x1="0" y1="60.0" x2="0" y2="166.0" gradientUnits="userSpaceOnUse" xlink:type="simple" xlink:actuate="onLoad" xlink:show="other" /><linearGradient xmlns:xlink="http://www.w3.org/1999/xlink" xlink:href="#linearGradientF8FBFEEDF5FCDEEDFAD4E7F8E2E5E9" id="linearGradientF8FBFEEDF5FCDEEDFAD4E7F8E2E5E9_844696135" x1="0" y1="460.0" x2="0" y2="566.0" gradientUnits="userSpaceOnUse" xlink:type="simple" xlink:actuate="onLoad" xlink:show="other" /><linearGradient xmlns:xlink="http://www.w3.org/1999/xlink" xlink:href="#linearGradientF8FBFEEDF5FCDEEDFAD4E7F8E2E5E9" id="linearGradientF8FBFEEDF5FCDEEDFAD4E7F8E2E5E9_1565895789" x1="0" y1="810.0" x2="0" y2="916.0" gradientUnits="userSpaceOnUse" xlink:type="simple" xlink:actuate="onLoad" xlink:show="other" /><linearGradient xmlns:xlink="http://www.w3.org/1999/xlink" xlink:href="#linearGradientFAFBFCFFFFCC" id="linearGradientFAFBFCFFFFCC_874402118" x1="0" y1="810.0" x2="0" y2="870.0" gradientUnits="userSpaceOnUse" xlink:type="simple" xlink:actuate="onLoad" xlink:show="other" /><linearGradient xmlns:xlink="http://www.w3.org/1999/xlink" xlink:href="#linearGradientF8FBFEEDF5FCDEEDFAD4E7F8E2E5E9" id="linearGradientF8FBFEEDF5FCDEEDFAD4E7F8E2E5E9_1403830547" x1="0" y1="840.0" x2="0" y2="946.0" gradientUnits="userSpaceOnUse" xlink:type="simple" xlink:actuate="onLoad" xlink:show="other" /><linearGradient xmlns:xlink="http://www.w3.org/1999/xlink" xlink:href="#linearGradientFAFBFCFFFFCC" id="linearGradientFAFBFCFFFFCC_694018579" x1="0" y1="810.0" x2="0" y2="870.0" gradientUnits="userSpaceOnUse" xlink:type="simple" xlink:actuate="onLoad" xlink:show="other" /><linearGradient xmlns:xlink="http://www.w3.org/1999/xlink" xlink:href="#linearGradientFAFBFCFFFFCC" id="linearGradientFAFBFCFFFFCC_1494947217" x1="0" y1="490.0" x2="0" y2="550.0" gradientUnits="userSpaceOnUse" xlink:type="simple" xlink:actuate="onLoad" xlink:show="other" /><linearGradient xmlns:xlink="http://www.w3.org/1999/xlink" xlink:href="#linearGradientF8FBFEEDF5FCDEEDFAD4E7F8E2E5E9" id="linearGradientF8FBFEEDF5FCDEEDFAD4E7F8E2E5E9_524938133" x1="0" y1="490.0" x2="0" y2="596.0" gradientUnits="userSpaceOnUse" xlink:type="simple" xlink:actuate="onLoad" xlink:show="other" /><linearGradient xmlns:xlink="http://www.w3.org/1999/xlink" xlink:href="#linearGradientF8FBFEEDF5FCDEEDFAD4E7F8E2E5E9" id="linearGradientF8FBFEEDF5FCDEEDFAD4E7F8E2E5E9_710411574" x1="0" y1="469.0" x2="0" y2="575.0" gradientUnits="userSpaceOnUse" xlink:type="simple" xlink:actuate="onLoad" xlink:show="other" /><linearGradient xmlns:xlink="http://www.w3.org/1999/xlink" xlink:href="#linearGradientFAFBFCFFFFCC" id="linearGradientFAFBFCFFFFCC_1825781524" x1="0" y1="490.0" x2="0" y2="550.0" gradientUnits="userSpaceOnUse" xlink:type="simple" xlink:actuate="onLoad" xlink:show="other" /><linearGradient xmlns:xlink="http://www.w3.org/1999/xlink" xlink:href="#linearGradientFF6666FF9696FFB6B6" id="linearGradientFF6666FF9696FFB6B6_1843724418" x1="0" y1="530.0" x2="0" y2="565.0" gradientUnits="userSpaceOnUse" xlink:type="simple" xlink:actuate="onLoad" xlink:show="other" /><linearGradient id="linearGradientFF6666FF9696FFB6B6"><stop style="stop-color:#FF6666;stop-opacity:1;" offset="0.0" id="stopFF6666" /><stop style="stop-color:#FF9696;stop-opacity:1;" offset="0.5" id="stopFF9696" /><stop style="stop-color:#FFB6B6;stop-opacity:1;" offset="1.0" id="stopFFB6B6" /></linearGradient><linearGradient xmlns:xlink="http://www.w3.org/1999/xlink" xlink:href="#linearGradientF8FBFEEDF5FCDEEDFAD4E7F8E2E5E9" id="linearGradientF8FBFEEDF5FCDEEDFAD4E7F8E2E5E9_1025530856" x1="0" y1="820.0" x2="0" y2="926.0" gradientUnits="userSpaceOnUse" xlink:type="simple" xlink:actuate="onLoad" xlink:show="other" /><linearGradient xmlns:xlink="http://www.w3.org/1999/xlink" xlink:href="#linearGradientF8FBFEEDF5FCDEEDFAD4E7F8E2E5E9" id="linearGradientF8FBFEEDF5FCDEEDFAD4E7F8E2E5E9_1471908047" x1="0" y1="820.0" x2="0" y2="926.0" gradientUnits="userSpaceOnUse" xlink:type="simple" xlink:actuate="onLoad" xlink:show="other" /><linearGradient xmlns:xlink="http://www.w3.org/1999/xlink" xlink:href="#linearGradientF8FBFEEDF5FCDEEDFAD4E7F8E2E5E9" id="linearGradientF8FBFEEDF5FCDEEDFAD4E7F8E2E5E9_581271227" x1="0" y1="90.0" x2="0" y2="196.0" gradientUnits="userSpaceOnUse" xlink:type="simple" xlink:actuate="onLoad" xlink:show="other" /><linearGradient xmlns:xlink="http://www.w3.org/1999/xlink" xlink:href="#linearGradientF8FBFEEDF5FCDEEDFAD4E7F8E2E5E9" id="linearGradientF8FBFEEDF5FCDEEDFAD4E7F8E2E5E9_1728154493" x1="0" y1="510.0" x2="0" y2="616.0" gradientUnits="userSpaceOnUse" xlink:type="simple" xlink:actuate="onLoad" xlink:show="other" /><linearGradient xmlns:xlink="http://www.w3.org/1999/xlink" xlink:href="#linearGradientFAFBFCFFFFCC" id="linearGradientFAFBFCFFFFCC_1480680302" x1="0" y1="530.0" x2="0" y2="590.0" gradientUnits="userSpaceOnUse" xlink:type="simple" xlink:actuate="onLoad" xlink:show="other" /><linearGradient xmlns:xlink="http://www.w3.org/1999/xlink" xlink:href="#linearGradientFF6666FF9696FFB6B6" id="linearGradientFF6666FF9696FFB6B6_1396143449" x1="0" y1="550.0" x2="0" y2="585.0" gradientUnits="userSpaceOnUse" xlink:type="simple" xlink:actuate="onLoad" xlink:show="other" /><linearGradient xmlns:xlink="http://www.w3.org/1999/xlink" xlink:href="#linearGradientF8FBFEEDF5FCDEEDFAD4E7F8E2E5E9" id="linearGradientF8FBFEEDF5FCDEEDFAD4E7F8E2E5E9_1517193506" x1="0" y1="820.0" x2="0" y2="926.0" gradientUnits="userSpaceOnUse" xlink:type="simple" xlink:actuate="onLoad" xlink:show="other" /><linearGradient xmlns:xlink="http://www.w3.org/1999/xlink" xlink:href="#linearGradientF8FBFEEDF5FCDEEDFAD4E7F8E2E5E9" id="linearGradientF8FBFEEDF5FCDEEDFAD4E7F8E2E5E9_828357489" x1="0" y1="70.0" x2="0" y2="176.0" gradientUnits="userSpaceOnUse" xlink:type="simple" xlink:actuate="onLoad" xlink:show="other" /></defs></svg>
